0
SECTION
2
HEADER
9
$INSUNITS
70
4
9
$ACADVER
1
AC1014
9
$HANDSEED
5
FFFF
0
ENDSEC
0
SECTION
2
TABLES
0
TABLE
2
VPORT
5
8
100
AcDbSymbolTable
0
ENDTAB
0
TABLE
2
LTYPE
5
5
100
AcDbSymbolTable
0
LTYPE
5
14
100
AcDbSymbolTableRecord
100
AcDbLinetypeTableRecord
2
BYBLOCK
70
0
0
LTYPE
5
15
100
AcDbSymbolTableRecord
100
AcDbLinetypeTableRecord
2
BYLAYER
70
0
0
LTYPE
5
16
100
AcDbSymbolTableRecord
100
AcDbLinetypeTableRecord
2
DASHED
70
0
3
Dashed __ __ __ __ __ __ __ __ __ __ __ __ __ _
72
65
73
2
40
0.75
49
0.5
74
0
49
-0.25
74
0
0
ENDTAB
0
TABLE
2
LAYER
5
2
100
AcDbSymbolTable
70
2
0
LAYER
5
50
100
AcDbSymbolTableRecord
100
AcDbLayerTableRecord
2
0
70
0
62
7
6
CONTINUOUS
0
ENDTAB
0
TABLE
2
STYLE
5
3
100
AcDbSymbolTable
70
1
0
STYLE
5
11
100
AcDbSymbolTableRecord
100
AcDbTextStyleTableRecord
2
STANDARD
70
0
0
ENDTAB
0
TABLE
2
VIEW
5
6
100
AcDbSymbolTable
70
0
0
ENDTAB
0
TABLE
2
UCS
5
7
100
AcDbSymbolTable
70
0
0
ENDTAB
0
TABLE
2
APPID
5
9
100
AcDbSymbolTable
70
2
0
APPID
5
12
100
AcDbSymbolTableRecord
100
AcDbRegAppTableRecord
2
ACAD
70
0
0
ENDTAB
0
TABLE
2
DIMSTYLE
5
A
100
AcDbSymbolTable
70
1
0
ENDTAB
0
TABLE
2
BLOCK_RECORD
5
1
100
AcDbSymbolTable
70
1
0
BLOCK_RECORD
5
1F
100
AcDbSymbolTableRecord
100
AcDbBlockTableRecord
2
*MODEL_SPACE
0
BLOCK_RECORD
5
1B
100
AcDbSymbolTableRecord
100
AcDbBlockTableRecord
2
*PAPER_SPACE
0
ENDTAB
0
ENDSEC
0
SECTION
2
BLOCKS
0
BLOCK
5
20
100
AcDbEntity
100
AcDbBlockBegin
2
*MODEL_SPACE
0
ENDBLK
5
21
100
AcDbEntity
100
AcDbBlockEnd
0
BLOCK
5
1C
100
AcDbEntity
100
AcDbBlockBegin
2
*PAPER_SPACE
0
ENDBLK
5
1D
100
AcDbEntity
100
AcDbBlockEnd
0
ENDSEC
0
SECTION
2
ENTITIES
0
LINE
5
100
100
AcDbEntity
8
0
100
AcDbLine
10
0
20
35
30
0
11
0
21
25
31
0
0
LINE
5
101
100
AcDbEntity
8
0
100
AcDbLine
10
0
20
15
30
0
11
-3.0000000000000004
21
15
31
0
0
LINE
5
102
100
AcDbEntity
8
0
100
AcDbLine
10
-3.0000000000000004
20
15
30
0
11
-3.0000000000000004
21
25
31
0
0
LINE
5
103
100
AcDbEntity
8
0
100
AcDbLine
10
-3.0000000000000004
20
25
30
0
11
0
21
25
31
0
0
LINE
5
104
100
AcDbEntity
8
0
100
AcDbLine
10
0
20
35
30
0
11
-3.0000000000000004
21
35
31
0
0
LINE
5
105
100
AcDbEntity
8
0
100
AcDbLine
10
-3.0000000000000004
20
35
30
0
11
-3.0000000000000004
21
45
31
0
0
LINE
5
106
100
AcDbEntity
8
0
100
AcDbLine
10
0
20
45
30
0
11
-3.0000000000000004
21
45
31
0
0
LINE
5
107
100
AcDbEntity
8
0
100
AcDbLine
10
-3.0000000000000004
20
60
30
0
11
0
21
60
31
0
0
LINE
5
108
100
AcDbEntity
8
0
100
AcDbLine
10
0
20
60
30
0
11
0
21
45
31
0
0
LINE
5
109
100
AcDbEntity
8
0
100
AcDbLine
10
-80
20
60
30
0
11
-3.0000000000000004
21
60
31
0
0
LINE
5
110
100
AcDbEntity
8
0
100
AcDbLine
10
0
20
15
30
0
11
0
21
0
31
0
0
LINE
5
111
100
AcDbEntity
8
0
100
AcDbLine
10
0
20
0
30
0
11
-14.999999999999998
21
0
31
0
0
LINE
5
112
100
AcDbEntity
8
0
100
AcDbLine
10
-25
20
3.0000000000000004
30
0
11
-14.999999999999998
21
3.0000000000000004
31
0
0
LINE
5
113
100
AcDbEntity
8
0
100
AcDbLine
10
-14.999999999999998
20
3.0000000000000004
30
0
11
-14.999999999999998
21
0
31
0
0
LINE
5
114
100
AcDbEntity
8
0
100
AcDbLine
10
-25
20
3.0000000000000004
30
0
11
-25
21
-6.1629758220391547e-32
31
0
0
LINE
5
115
100
AcDbEntity
8
0
100
AcDbLine
10
-45
20
-6.1629758220391547e-32
30
0
11
-45
21
3.0000000000000004
31
0
0
LINE
5
116
100
AcDbEntity
8
0
100
AcDbLine
10
-45
20
3.0000000000000004
30
0
11
-35
21
3.0000000000000004
31
0
0
LINE
5
117
100
AcDbEntity
8
0
100
AcDbLine
10
-35
20
3.0000000000000004
30
0
11
-35
21
-6.1629758220391547e-32
31
0
0
LINE
5
118
100
AcDbEntity
8
0
100
AcDbLine
10
-45
20
-6.1629758220391547e-32
30
0
11
-55
21
-1.2325951644078309e-31
31
0
0
LINE
5
119
100
AcDbEntity
8
0
100
AcDbLine
10
-55
20
-1.2325951644078309e-31
30
0
11
-55
21
3.0000000000000004
31
0
0
LINE
5
120
100
AcDbEntity
8
0
100
AcDbLine
10
-25
20
-6.1629758220391547e-32
30
0
11
-35
21
-6.1629758220391547e-32
31
0
0
LINE
5
121
100
AcDbEntity
8
0
100
AcDbLine
10
-65
20
-1.8488927466117464e-31
30
0
11
-80
21
0
31
0
0
LINE
5
122
100
AcDbEntity
8
0
100
AcDbLine
10
-65
20
-1.8488927466117464e-31
30
0
11
-65
21
3.0000000000000004
31
0
0
LINE
5
123
100
AcDbEntity
8
0
100
AcDbLine
10
-65
20
3.0000000000000004
30
0
11
-55
21
3.0000000000000004
31
0
0
LINE
5
124
100
AcDbEntity
8
0
100
AcDbLine
10
-80
20
15
30
0
11
-77.000001147389412
21
15
31
0
0
LINE
5
125
100
AcDbEntity
8
0
100
AcDbLine
10
-77.000001147389412
20
15
30
0
11
-77.000001147389412
21
25
31
0
0
LINE
5
126
100
AcDbEntity
8
0
100
AcDbLine
10
-80
20
0
30
0
11
-80
21
15
31
0
0
LINE
5
127
100
AcDbEntity
8
0
100
AcDbLine
10
-80
20
45
30
0
11
-80
21
60
31
0
0
LINE
5
128
100
AcDbEntity
8
0
100
AcDbLine
10
-80
20
25
30
0
11
-77.000001147389412
21
25
31
0
0
LINE
5
129
100
AcDbEntity
8
0
100
AcDbLine
10
-80
20
35
30
0
11
-80
21
25
31
0
0
LINE
5
130
100
AcDbEntity
8
0
100
AcDbLine
10
-80
20
35
30
0
11
-77.000001147389412
21
35
31
0
0
LINE
5
131
100
AcDbEntity
8
0
100
AcDbLine
10
-77.000001147389412
20
35
30
0
11
-77.000001147389412
21
45
31
0
0
LINE
5
132
100
AcDbEntity
8
0
100
AcDbLine
10
-77.000001147389412
20
45
30
0
11
-80
21
45
31
0
0
LINE
5
133
100
AcDbEntity
8
0
100
AcDbLine
10
-83
20
45
30
0
11
-86.000000000000014
21
45
31
0
0
LINE
5
134
100
AcDbEntity
8
0
100
AcDbLine
10
-83
20
60
30
0
11
-83
21
45
31
0
0
LINE
5
135
100
AcDbEntity
8
0
100
AcDbLine
10
-83
20
-5.1052624841708622e-15
30
0
11
-98
21
-5.1052624841708622e-15
31
0
0
LINE
5
136
100
AcDbEntity
8
0
100
AcDbLine
10
-86.921419699294873
20
60
30
0
11
-83
21
60
31
0
0
LINE
5
137
100
AcDbEntity
8
0
100
AcDbLine
10
-98
20
2.9999999999999947
30
0
11
-98
21
-5.1052624841708622e-15
31
0
0
LINE
5
138
100
AcDbEntity
8
0
100
AcDbLine
10
-128
20
-5.1052624841708622e-15
30
0
11
-138
21
-5.1052624841708622e-15
31
0
0
LINE
5
139
100
AcDbEntity
8
0
100
AcDbLine
10
-160.92142084668427
20
14.999999999999996
30
0
11
-160.92142084668427
21
24.999999999999996
31
0
0
LINE
5
140
100
AcDbEntity
8
0
100
AcDbLine
10
-148
20
-5.1052624841708622e-15
30
0
11
-148
21
2.9999999999999956
31
0
0
LINE
5
141
100
AcDbEntity
8
0
100
AcDbLine
10
-83
20
14.999999999999996
30
0
11
-83
21
-5.1052624841708622e-15
31
0
0
LINE
5
142
100
AcDbEntity
8
0
100
AcDbLine
10
-128
20
2.9999999999999956
30
0
11
-118
21
2.9999999999999956
31
0
0
LINE
5
143
100
AcDbEntity
8
0
100
AcDbLine
10
-160.92142084668427
20
45
30
0
11
-163
21
45
31
0
0
LINE
5
144
100
AcDbEntity
8
0
100
AcDbLine
10
-86.000000000000014
20
14.999999999999996
30
0
11
-86.000000000000014
21
24.999999999999996
31
0
0
LINE
5
145
100
AcDbEntity
8
0
100
AcDbLine
10
-148
20
2.9999999999999956
30
0
11
-138
21
2.9999999999999956
31
0
0
LINE
5
146
100
AcDbEntity
8
0
100
AcDbLine
10
-108
20
2.9999999999999956
30
0
11
-108
21
-5.1052624841708622e-15
31
0
0
LINE
5
147
100
AcDbEntity
8
0
100
AcDbLine
10
-128
20
-5.1052624841708622e-15
30
0
11
-128
21
2.9999999999999956
31
0
0
LINE
5
148
100
AcDbEntity
8
0
100
AcDbLine
10
-163
20
60
30
0
11
-86.921419699294873
21
60
31
0
0
LINE
5
149
100
AcDbEntity
8
0
100
AcDbLine
10
-83
20
34.999999999999993
30
0
11
-83
21
24.999999999999996
31
0
0
LINE
5
150
100
AcDbEntity
8
0
100
AcDbLine
10
-163.92141969929486
20
34.999999999999993
30
0
11
-163.92141969929486
21
24.999999999999996
31
0
0
LINE
5
151
100
AcDbEntity
8
0
100
AcDbLine
10
-163
20
14.999999999999996
30
0
11
-160.92142084668427
21
14.999999999999996
31
0
0
LINE
5
152
100
AcDbEntity
8
0
100
AcDbLine
10
-108
20
-5.1052624841708622e-15
30
0
11
-118
21
-5.1052624841708622e-15
31
0
0
LINE
5
153
100
AcDbEntity
8
0
100
AcDbLine
10
-160.92142084668427
20
34.999999999999993
30
0
11
-160.92142084668427
21
45
31
0
0
LINE
5
154
100
AcDbEntity
8
0
100
AcDbLine
10
-108
20
2.9999999999999956
30
0
11
-98
21
2.9999999999999947
31
0
0
LINE
5
155
100
AcDbEntity
8
0
100
AcDbLine
10
-86.000000000000014
20
34.999999999999993
30
0
11
-86.000000000000014
21
45
31
0
0
LINE
5
156
100
AcDbEntity
8
0
100
AcDbLine
10
-83
20
34.999999999999993
30
0
11
-86.000000000000014
21
34.999999999999993
31
0
0
LINE
5
157
100
AcDbEntity
8
0
100
AcDbLine
10
-83
20
14.999999999999996
30
0
11
-86.000000000000014
21
14.999999999999996
31
0
0
LINE
5
158
100
AcDbEntity
8
0
100
AcDbLine
10
-163.92141969929486
20
34.999999999999993
30
0
11
-160.92142084668427
21
34.999999999999993
31
0
0
LINE
5
159
100
AcDbEntity
8
0
100
AcDbLine
10
-86.000000000000014
20
24.999999999999996
30
0
11
-83
21
24.999999999999996
31
0
0
LINE
5
160
100
AcDbEntity
8
0
100
AcDbLine
10
-163
20
45
30
0
11
-163
21
60
31
0
0
LINE
5
161
100
AcDbEntity
8
0
100
AcDbLine
10
-163.92141969929486
20
24.999999999999996
30
0
11
-160.92142084668427
21
24.999999999999996
31
0
0
LINE
5
162
100
AcDbEntity
8
0
100
AcDbLine
10
-148
20
-5.1052624841708622e-15
30
0
11
-163
21
-5.1052624841708622e-15
31
0
0
LINE
5
163
100
AcDbEntity
8
0
100
AcDbLine
10
-118
20
2.9999999999999956
30
0
11
-118
21
-5.1052624841708622e-15
31
0
0
LINE
5
164
100
AcDbEntity
8
0
100
AcDbLine
10
-163
20
-5.1052624841708622e-15
30
0
11
-163
21
14.999999999999996
31
0
0
LINE
5
165
100
AcDbEntity
8
0
100
AcDbLine
10
-138
20
-5.1052624841708622e-15
30
0
11
-138
21
2.999999999999996
31
0
0
LINE
5
166
100
AcDbEntity
8
0
100
AcDbLine
10
-55
20
98
30
0
11
-55
21
108
31
0
0
LINE
5
167
100
AcDbEntity
8
0
100
AcDbLine
10
-52
20
123
30
0
11
-8
21
123
31
0
0
LINE
5
168
100
AcDbEntity
8
0
100
AcDbLine
10
-8
20
123
30
0
11
-8
21
108
31
0
0
LINE
5
169
100
AcDbEntity
8
0
100
AcDbLine
10
-8
20
108
30
0
11
-5
21
108
31
0
0
LINE
5
170
100
AcDbEntity
8
0
100
AcDbLine
10
-8
20
98
30
0
11
-5
21
98
31
0
0
LINE
5
171
100
AcDbEntity
8
0
100
AcDbLine
10
-8
20
98
30
0
11
-8
21
88
31
0
0
LINE
5
172
100
AcDbEntity
8
0
100
AcDbLine
10
-5
20
88
30
0
11
-8
21
88
31
0
0
LINE
5
173
100
AcDbEntity
8
0
100
AcDbLine
10
-8
20
78
30
0
11
-5
21
78
31
0
0
LINE
5
174
100
AcDbEntity
8
0
100
AcDbLine
10
-5
20
78
30
0
11
-5
21
88
31
0
0
LINE
5
175
100
AcDbEntity
8
0
100
AcDbLine
10
-5
20
108
30
0
11
-5
21
98
31
0
0
LINE
5
176
100
AcDbEntity
8
0
100
AcDbLine
10
-8
20
78
30
0
11
-8
21
63
31
0
0
LINE
5
177
100
AcDbEntity
8
0
100
AcDbLine
10
-25
20
63
30
0
11
-25
21
66
31
0
0
LINE
5
178
100
AcDbEntity
8
0
100
AcDbLine
10
-35
20
63
30
0
11
-35
21
66
31
0
0
LINE
5
179
100
AcDbEntity
8
0
100
AcDbLine
10
-35
20
66
30
0
11
-25
21
66
31
0
0
LINE
5
180
100
AcDbEntity
8
0
100
AcDbLine
10
-25
20
66
30
0
11
-25
21
63
31
0
0
LWPOLYLINE
5
181
100
AcDbEntity
8
0
100
AcDbPolyline
90
2
70
1
43
0.0
10
-35
20
63
10
-52
20
63.000000000000007
0
LINE
5
182
100
AcDbEntity
8
0
100
AcDbLine
10
-8
20
63
30
0
11
-25
21
63
31
0
0
LINE
5
183
100
AcDbEntity
8
0
100
AcDbLine
10
-52
20
123
30
0
11
-52
21
108
31
0
0
LINE
5
184
100
AcDbEntity
8
0
100
AcDbLine
10
-55
20
108
30
0
11
-52
21
108
31
0
0
LINE
5
185
100
AcDbEntity
8
0
100
AcDbLine
10
-52
20
98
30
0
11
-55
21
98
31
0
0
LINE
5
186
100
AcDbEntity
8
0
100
AcDbLine
10
-52
20
98
30
0
11
-52
21
88
31
0
0
LINE
5
187
100
AcDbEntity
8
0
100
AcDbLine
10
-55
20
88
30
0
11
-52
21
88
31
0
0
LINE
5
188
100
AcDbEntity
8
0
100
AcDbLine
10
-52
20
78
30
0
11
-55
21
78
31
0
0
LINE
5
189
100
AcDbEntity
8
0
100
AcDbLine
10
-55
20
78
30
0
11
-55
21
88
31
0
0
LINE
5
190
100
AcDbEntity
8
0
100
AcDbLine
10
-55
20
78
30
0
11
-52
21
78
31
0
0
LINE
5
191
100
AcDbEntity
8
0
100
AcDbLine
10
-52
20
78
30
0
11
-52
21
63.000000000000007
31
0
0
LINE
5
192
100
AcDbEntity
8
0
100
AcDbLine
10
-88.733435598138584
20
66.000000000000014
30
0
11
-78.73343559813857
21
66.000000000000014
31
0
0
LINE
5
193
100
AcDbEntity
8
0
100
AcDbLine
10
-61.73343559813857
20
98.000000000000028
30
0
11
-61.73343559813857
21
88.000000000000028
31
0
0
LINE
5
194
100
AcDbEntity
8
0
100
AcDbLine
10
-105.73343559813857
20
98.000000000000028
30
0
11
-105.73343559813857
21
88.000000000000028
31
0
0
LINE
5
195
100
AcDbEntity
8
0
100
AcDbLine
10
-88.733435598138584
20
63.000000000000014
30
0
11
-88.733435598138584
21
66.000000000000014
31
0
0
LINE
5
196
100
AcDbEntity
8
0
100
AcDbLine
10
-58.73343559813857
20
108.00000000000003
30
0
11
-58.73343559813857
21
98.000000000000028
31
0
0
LINE
5
197
100
AcDbEntity
8
0
100
AcDbLine
10
-105.73343559813857
20
78.000000000000028
30
0
11
-108.73343559813858
21
78.000000000000028
31
0
0
LINE
5
198
100
AcDbEntity
8
0
100
AcDbLine
10
-108.73343559813858
20
78.000000000000028
30
0
11
-108.73343559813858
21
88.000000000000028
31
0
0
LINE
5
199
100
AcDbEntity
8
0
100
AcDbLine
10
-108.73343559813858
20
88.000000000000028
30
0
11
-105.73343559813857
21
88.000000000000028
31
0
0
LINE
5
200
100
AcDbEntity
8
0
100
AcDbLine
10
-105.73343559813857
20
98.000000000000028
30
0
11
-108.73343559813858
21
98.000000000000028
31
0
0
LWPOLYLINE
5
201
100
AcDbEntity
8
0
100
AcDbPolyline
90
2
70
1
43
0.0
10
-88.733435598138584
20
63.000000000000014
10
-105.73343559813857
20
63.000000000000028
0
LINE
5
202
100
AcDbEntity
8
0
100
AcDbLine
10
-61.73343559813857
20
63.000000000000014
30
0
11
-78.73343559813857
21
63.000000000000014
31
0
0
LINE
5
203
100
AcDbEntity
8
0
100
AcDbLine
10
-61.73343559813857
20
108.00000000000003
30
0
11
-58.73343559813857
21
108.00000000000003
31
0
0
LINE
5
204
100
AcDbEntity
8
0
100
AcDbLine
10
-105.73343559813857
20
123.00000000000003
30
0
11
-105.73343559813857
21
108.00000000000003
31
0
0
LINE
5
205
100
AcDbEntity
8
0
100
AcDbLine
10
-58.73343559813857
20
88.000000000000028
30
0
11
-61.73343559813857
21
88.000000000000028
31
0
0
LINE
5
206
100
AcDbEntity
8
0
100
AcDbLine
10
-78.73343559813857
20
63.000000000000014
30
0
11
-78.73343559813857
21
66.000000000000014
31
0
0
LINE
5
207
100
AcDbEntity
8
0
100
AcDbLine
10
-108.73343559813858
20
98.000000000000028
30
0
11
-108.73343559813858
21
108.00000000000003
31
0
0
LINE
5
208
100
AcDbEntity
8
0
100
AcDbLine
10
-105.73343559813857
20
123.00000000000003
30
0
11
-61.73343559813857
21
123.00000000000003
31
0
0
LINE
5
209
100
AcDbEntity
8
0
100
AcDbLine
10
-61.73343559813857
20
123.00000000000003
30
0
11
-61.73343559813857
21
108.00000000000003
31
0
0
LINE
5
210
100
AcDbEntity
8
0
100
AcDbLine
10
-61.73343559813857
20
78.000000000000028
30
0
11
-61.73343559813857
21
63.000000000000014
31
0
0
LINE
5
211
100
AcDbEntity
8
0
100
AcDbLine
10
-61.73343559813857
20
98.000000000000028
30
0
11
-58.73343559813857
21
98.000000000000028
31
0
0
LINE
5
212
100
AcDbEntity
8
0
100
AcDbLine
10
-58.73343559813857
20
78.000000000000028
30
0
11
-58.73343559813857
21
88.000000000000028
31
0
0
LINE
5
213
100
AcDbEntity
8
0
100
AcDbLine
10
-108.73343559813858
20
78.000000000000028
30
0
11
-105.73343559813857
21
78.000000000000028
31
0
0
LINE
5
214
100
AcDbEntity
8
0
100
AcDbLine
10
-105.73343559813857
20
78.000000000000028
30
0
11
-105.73343559813857
21
63.000000000000028
31
0
0
LINE
5
215
100
AcDbEntity
8
0
100
AcDbLine
10
-61.73343559813857
20
78.000000000000028
30
0
11
-58.73343559813857
21
78.000000000000028
31
0
0
LINE
5
216
100
AcDbEntity
8
0
100
AcDbLine
10
-78.73343559813857
20
66.000000000000014
30
0
11
-78.73343559813857
21
63.000000000000014
31
0
0
LINE
5
217
100
AcDbEntity
8
0
100
AcDbLine
10
-108.73343559813858
20
108.00000000000003
30
0
11
-105.73343559813857
21
108.00000000000003
31
0
0
LINE
5
218
100
AcDbEntity
8
0
100
AcDbLine
10
-111.91871812903983
20
86.843099374078619
30
0
11
-111.91871812903983
21
96.843099374078619
31
0
0
LINE
5
219
100
AcDbEntity
8
0
100
AcDbLine
10
-114.91871812903983
20
113.84309937407862
30
0
11
-114.91871812903983
21
96.843099374078619
31
0
0
LINE
5
220
100
AcDbEntity
8
0
100
AcDbLine
10
-111.91871812903983
20
96.843099374078619
30
0
11
-114.91871812903983
21
96.843099374078619
31
0
0
LINE
5
221
100
AcDbEntity
8
0
100
AcDbLine
10
-111.91871812903983
20
86.843099374078619
30
0
11
-114.91871812903983
21
86.843099374078619
31
0
0
LINE
5
222
100
AcDbEntity
8
0
100
AcDbLine
10
-114.91871812903983
20
86.843099374078619
30
0
11
-114.91871812903983
21
69.843099374078619
31
0
0
LINE
5
223
100
AcDbEntity
8
0
100
AcDbLine
10
-126.91871812903983
20
66.843099374078619
30
0
11
-126.91871812903983
21
69.843099374078619
31
0
0
LINE
5
224
100
AcDbEntity
8
0
100
AcDbLine
10
-126.91871812903983
20
69.843099374078619
30
0
11
-114.91871812903983
21
69.843099374078619
31
0
0
LINE
5
225
100
AcDbEntity
8
0
100
AcDbLine
10
-126.91871812903983
20
66.843099374078619
30
0
11
-136.91871812903983
21
66.843099374078619
31
0
0
LINE
5
226
100
AcDbEntity
8
0
100
AcDbLine
10
-176.91871812903983
20
66.843099374078619
30
0
11
-166.91871812903983
21
66.843099374078619
31
0
0
LINE
5
227
100
AcDbEntity
8
0
100
AcDbLine
10
-146.91871812903983
20
69.843099374078619
30
0
11
-136.91871812903983
21
69.843099374078619
31
0
0
LINE
5
228
100
AcDbEntity
8
0
100
AcDbLine
10
-136.91871812903983
20
69.843099374078619
30
0
11
-136.91871812903983
21
66.843099374078619
31
0
0
LINE
5
229
100
AcDbEntity
8
0
100
AcDbLine
10
-146.91871812903983
20
66.843099374078619
30
0
11
-156.91871812903983
21
66.843099374078619
31
0
0
LINE
5
230
100
AcDbEntity
8
0
100
AcDbLine
10
-156.91871812903983
20
66.843099374078619
30
0
11
-156.91871812903983
21
69.843099374078619
31
0
0
LINE
5
231
100
AcDbEntity
8
0
100
AcDbLine
10
-146.91871812903983
20
69.843099374078619
30
0
11
-146.91871812903983
21
66.843099374078619
31
0
0
LINE
5
232
100
AcDbEntity
8
0
100
AcDbLine
10
-166.91871812903983
20
66.843099374078619
30
0
11
-166.91871812903983
21
69.843099374078619
31
0
0
LINE
5
233
100
AcDbEntity
8
0
100
AcDbLine
10
-166.91871812903983
20
69.843099374078619
30
0
11
-156.91871812903983
21
69.843099374078619
31
0
0
LINE
5
234
100
AcDbEntity
8
0
100
AcDbLine
10
-176.91871812903983
20
66.843099374078619
30
0
11
-176.91871812903983
21
69.843099374078619
31
0
0
LINE
5
235
100
AcDbEntity
8
0
100
AcDbLine
10
-126.91871812903983
20
113.84309937407862
30
0
11
-114.91871812903983
21
113.84309937407862
31
0
0
LINE
5
236
100
AcDbEntity
8
0
100
AcDbLine
10
-126.91871812903983
20
116.84309937407862
30
0
11
-136.91871812903983
21
116.84309937407862
31
0
0
LINE
5
237
100
AcDbEntity
8
0
100
AcDbLine
10
-136.91871812903983
20
116.84309937407862
30
0
11
-136.91871812903983
21
113.84309937407862
31
0
0
LINE
5
238
100
AcDbEntity
8
0
100
AcDbLine
10
-126.91871812903983
20
113.84309937407862
30
0
11
-126.91871812903983
21
116.84309937407862
31
0
0
LINE
5
239
100
AcDbEntity
8
0
100
AcDbLine
10
-146.91871812903983
20
116.84309937407862
30
0
11
-146.91871812903983
21
113.84309937407862
31
0
0
LINE
5
240
100
AcDbEntity
8
0
100
AcDbLine
10
-146.91871812903983
20
113.84309937407862
30
0
11
-136.91871812903983
21
113.84309937407862
31
0
0
LINE
5
241
100
AcDbEntity
8
0
100
AcDbLine
10
-146.91871812903983
20
116.84309937407862
30
0
11
-156.91871812903983
21
116.84309937407862
31
0
0
LINE
5
242
100
AcDbEntity
8
0
100
AcDbLine
10
-166.91871812903983
20
116.84309937407862
30
0
11
-176.91871812903983
21
116.84309937407862
31
0
0
LINE
5
243
100
AcDbEntity
8
0
100
AcDbLine
10
-166.91871812903983
20
113.84309937407862
30
0
11
-156.91871812903983
21
113.84309937407862
31
0
0
LINE
5
244
100
AcDbEntity
8
0
100
AcDbLine
10
-156.91871812903983
20
113.84309937407862
30
0
11
-156.91871812903983
21
116.84309937407862
31
0
0
LINE
5
245
100
AcDbEntity
8
0
100
AcDbLine
10
-176.91871812903983
20
116.84309937407862
30
0
11
-176.91871812903983
21
113.84309937407862
31
0
0
LINE
5
246
100
AcDbEntity
8
0
100
AcDbLine
10
-166.91871812903983
20
113.84309937407862
30
0
11
-166.91871812903983
21
116.84309937407862
31
0
0
LINE
5
247
100
AcDbEntity
8
0
100
AcDbLine
10
-188.91871812903983
20
113.84309937407862
30
0
11
-176.91871812903983
21
113.84309937407862
31
0
0
LINE
5
248
100
AcDbEntity
8
0
100
AcDbLine
10
-188.91871812903983
20
113.84309937407862
30
0
11
-188.91871812903983
21
96.843099374078619
31
0
0
LINE
5
249
100
AcDbEntity
8
0
100
AcDbLine
10
-188.91871812903983
20
96.843099374078619
30
0
11
-191.91871812903983
21
96.843099374078619
31
0
0
LINE
5
250
100
AcDbEntity
8
0
100
AcDbLine
10
-188.91871812903983
20
86.843099374078619
30
0
11
-191.91871812903983
21
86.843099374078619
31
0
0
LINE
5
251
100
AcDbEntity
8
0
100
AcDbLine
10
-191.91871812903983
20
86.843099374078619
30
0
11
-191.91871812903983
21
96.843099374078619
31
0
0
LINE
5
252
100
AcDbEntity
8
0
100
AcDbLine
10
-188.91871812903983
20
86.843099374078619
30
0
11
-188.91871812903983
21
69.843099374078619
31
0
0
LINE
5
253
100
AcDbEntity
8
0
100
AcDbLine
10
-176.91871812903983
20
69.843099374078619
30
0
11
-188.91871812903983
21
69.843099374078619
31
0
0
ENDSEC
0
SECTION
2
OBJECTS
0
DICTIONARY
5
C
100
AcDbDictionary
3
ACAD_GROUP
350
D
3
ACAD_MLINESTYLE
350
17
0
DICTIONARY
5
D
100
AcDbDictionary
0
DICTIONARY
5
1A
330
C
100
AcDbDictionary
0
DICTIONARY
5
17
100
AcDbDictionary
0
ENDSEC
0
EOF
